<?xml version="1.0" encoding="UTF-8"?>
<svg xmlns="http://www.w3.org/2000/svg" xmlns:xlink="http://www.w3.org/1999/xlink" width="37px" height="42px" viewBox="0 0 37 42" version="1.1">
<g id="surface1">
<path style=" stroke:none;fill-rule:nonzero;fill:rgb(30.588236%,85.09804%,92.941177%);fill-opacity:1;" d="M 29.785156 5.25 C 31.066406 5.25 32.347656 5.25 33.671875 5.25 C 33.695312 7.84375 33.71875 10.441406 33.742188 13.035156 C 33.753906 14.242188 33.765625 15.449219 33.777344 16.652344 C 33.824219 21.574219 33.863281 26.5 33.871094 31.421875 C 33.871094 31.859375 33.871094 32.300781 33.875 32.738281 C 33.875 33.339844 33.875 33.941406 33.875 34.546875 C 33.878906 34.722656 33.878906 34.902344 33.878906 35.085938 C 33.875 36.304688 33.875 36.304688 33.671875 36.539062 C 33.421875 36.558594 33.171875 36.5625 32.921875 36.558594 C 32.773438 36.558594 32.625 36.558594 32.46875 36.558594 C 32.3125 36.558594 32.15625 36.554688 31.992188 36.554688 C 31.835938 36.550781 31.675781 36.550781 31.515625 36.550781 C 31.125 36.546875 30.730469 36.542969 30.339844 36.539062 C 29.730469 35.042969 29.207031 33.519531 28.695312 31.976562 C 28.609375 31.722656 28.523438 31.46875 28.4375 31.203125 C 28.210938 30.523438 27.984375 29.847656 27.757812 29.167969 C 27.535156 28.496094 27.3125 27.824219 27.085938 27.148438 C 26.007812 23.914062 24.933594 20.671875 23.863281 17.429688 C 23.878906 17.628906 23.890625 17.824219 23.90625 18.027344 C 24.117188 21.582031 24.070312 25.144531 24.0625 28.703125 C 24.0625 29.589844 24.058594 30.472656 24.058594 31.359375 C 24.058594 33.085938 24.054688 34.8125 24.050781 36.539062 C 22.828125 36.539062 21.609375 36.539062 20.351562 36.539062 C 20.203125 28.957031 20.148438 21.378906 20.152344 13.792969 C 20.152344 13.585938 20.152344 13.378906 20.152344 13.164062 C 20.15625 10.597656 20.160156 8.027344 20.164062 5.460938 C 21.324219 5.460938 22.484375 5.460938 23.679688 5.460938 C 24.289062 7.097656 24.867188 8.742188 25.398438 10.414062 C 25.507812 10.75 25.507812 10.75 25.617188 11.09375 C 25.847656 11.808594 26.074219 12.527344 26.304688 13.242188 C 26.617188 14.222656 26.933594 15.203125 27.246094 16.179688 C 27.324219 16.417969 27.398438 16.65625 27.476562 16.902344 C 28.300781 19.460938 29.132812 22.015625 29.96875 24.570312 C 29.964844 24.421875 29.957031 24.273438 29.953125 24.121094 C 29.804688 20.054688 29.761719 16 29.773438 11.929688 C 29.773438 11.171875 29.773438 10.414062 29.777344 9.65625 C 29.777344 8.1875 29.78125 6.71875 29.785156 5.25 Z M 30.15625 25.199219 C 30.339844 25.621094 30.339844 25.621094 30.339844 25.621094 Z M 30.15625 25.199219 "/>
<path style=" stroke:none;fill-rule:nonzero;fill:rgb(30.980393%,84.705883%,92.54902%);fill-opacity:1;" d="M 8.140625 5.460938 C 9.789062 5.460938 11.4375 5.460938 13.136719 5.460938 C 13.765625 8.851562 14.367188 12.246094 14.941406 15.652344 C 15.019531 16.125 15.101562 16.601562 15.179688 17.074219 C 15.390625 18.308594 15.597656 19.542969 15.804688 20.773438 C 15.976562 21.777344 16.144531 22.78125 16.316406 23.78125 C 16.519531 24.992188 16.722656 26.203125 16.929688 27.410156 C 16.96875 27.636719 17.003906 27.863281 17.042969 28.09375 C 17.253906 29.328125 17.460938 30.5625 17.667969 31.796875 C 17.757812 32.316406 17.84375 32.839844 17.933594 33.363281 C 17.988281 33.667969 18.039062 33.972656 18.089844 34.277344 C 18.132812 34.53125 18.175781 34.789062 18.222656 35.054688 C 18.316406 35.699219 18.316406 35.699219 18.316406 36.539062 C 17.609375 36.546875 16.90625 36.550781 16.199219 36.554688 C 15.996094 36.554688 15.796875 36.558594 15.589844 36.558594 C 15.300781 36.558594 15.300781 36.558594 15.007812 36.558594 C 14.742188 36.5625 14.742188 36.5625 14.472656 36.5625 C 14.058594 36.539062 14.058594 36.539062 13.875 36.328125 C 13.75 35.691406 13.671875 35.046875 13.585938 34.402344 C 13.558594 34.222656 13.535156 34.042969 13.507812 33.859375 C 13.484375 33.683594 13.460938 33.507812 13.433594 33.328125 C 13.414062 33.167969 13.390625 33.011719 13.367188 32.847656 C 13.3125 32.261719 13.320312 31.667969 13.320312 31.078125 C 11.671875 31.078125 10.023438 31.078125 8.324219 31.078125 C 8.265625 31.980469 8.203125 32.882812 8.140625 33.808594 C 8.085938 34.320312 8.023438 34.828125 7.953125 35.332031 C 7.925781 35.558594 7.894531 35.785156 7.863281 36.019531 C 7.769531 36.539062 7.769531 36.539062 7.585938 36.75 C 7.269531 36.769531 6.953125 36.773438 6.636719 36.769531 C 6.347656 36.769531 6.347656 36.769531 6.054688 36.769531 C 5.855469 36.765625 5.652344 36.765625 5.445312 36.761719 C 5.144531 36.761719 5.144531 36.761719 4.832031 36.761719 C 4.332031 36.757812 3.832031 36.753906 3.328125 36.75 C 3.582031 34.4375 3.914062 32.148438 4.285156 29.855469 C 4.34375 29.5 4.398438 29.140625 4.457031 28.785156 C 4.578125 28.03125 4.699219 27.277344 4.820312 26.523438 C 5.101562 24.761719 5.382812 23 5.664062 21.238281 C 5.757812 20.652344 5.851562 20.066406 5.945312 19.484375 C 6.464844 16.230469 6.976562 12.980469 7.480469 9.726562 C 7.515625 9.5 7.550781 9.273438 7.585938 9.042969 C 7.773438 7.847656 7.957031 6.652344 8.140625 5.460938 Z M 10.546875 12.601562 C 10.328125 14.390625 10.109375 16.183594 9.894531 17.976562 C 9.792969 18.808594 9.691406 19.644531 9.589844 20.476562 C 9.492188 21.277344 9.398438 22.082031 9.300781 22.886719 C 9.261719 23.191406 9.226562 23.496094 9.1875 23.804688 C 9.136719 24.234375 9.085938 24.664062 9.03125 25.09375 C 9.003906 25.335938 8.972656 25.582031 8.941406 25.832031 C 8.867188 26.492188 8.867188 26.492188 8.878906 27.300781 C 10.160156 27.300781 11.445312 27.300781 12.765625 27.300781 C 12.53125 25.414062 12.296875 23.527344 12.058594 21.644531 C 11.949219 20.769531 11.839844 19.890625 11.734375 19.015625 C 11.628906 18.171875 11.523438 17.328125 11.417969 16.484375 C 11.375 16.160156 11.335938 15.839844 11.296875 15.515625 C 11.242188 15.066406 11.183594 14.613281 11.125 14.164062 C 11.09375 13.90625 11.0625 13.648438 11.03125 13.386719 C 10.992188 13.195312 10.953125 13.003906 10.914062 12.808594 C 10.792969 12.742188 10.671875 12.671875 10.546875 12.601562 Z M 10.546875 12.601562 "/>
<path style=" stroke:none;fill-rule:nonzero;fill:rgb(41.176471%,80.784315%,87.450981%);fill-opacity:1;" d="M 29.785156 5.25 C 31.066406 5.25 32.347656 5.25 33.671875 5.25 C 33.671875 12.386719 33.671875 19.527344 33.671875 26.878906 C 33.609375 26.878906 33.546875 26.878906 33.484375 26.878906 C 33.484375 19.878906 33.484375 12.882812 33.484375 5.671875 C 32.386719 5.671875 31.289062 5.671875 30.15625 5.671875 C 30.214844 11.976562 30.277344 18.28125 30.339844 24.78125 C 30.277344 24.78125 30.21875 24.78125 30.15625 24.78125 C 29.714844 20.550781 29.761719 16.296875 29.773438 12.042969 C 29.773438 11.273438 29.773438 10.507812 29.777344 9.738281 C 29.777344 8.242188 29.78125 6.746094 29.785156 5.25 Z M 29.785156 5.25 "/>
<path style=" stroke:none;fill-rule:nonzero;fill:rgb(41.176471%,80.392158%,87.058824%);fill-opacity:1;" d="M 20.164062 5.460938 C 21.324219 5.460938 22.484375 5.460938 23.679688 5.460938 C 23.679688 5.53125 23.679688 5.597656 23.679688 5.671875 C 22.214844 5.773438 22.214844 5.773438 20.71875 5.878906 C 20.660156 15.929688 20.597656 25.976562 20.535156 36.328125 C 21.695312 36.261719 22.855469 36.191406 24.050781 36.121094 C 24.050781 36.257812 24.050781 36.398438 24.050781 36.539062 C 22.828125 36.539062 21.609375 36.539062 20.351562 36.539062 C 20.203125 28.957031 20.148438 21.378906 20.152344 13.792969 C 20.152344 13.585938 20.152344 13.378906 20.152344 13.164062 C 20.15625 10.597656 20.160156 8.027344 20.164062 5.460938 Z M 20.164062 5.460938 "/>
<path style=" stroke:none;fill-rule:nonzero;fill:rgb(40.784314%,80.392158%,86.274511%);fill-opacity:1;" d="M 8.140625 5.460938 C 9.789062 5.460938 11.4375 5.460938 13.136719 5.460938 C 14.078125 10.542969 14.078125 10.542969 14.394531 12.429688 C 14.4375 12.683594 14.480469 12.9375 14.527344 13.199219 C 14.605469 13.785156 14.632812 14.320312 14.613281 14.910156 C 14.5625 14.78125 14.507812 14.648438 14.453125 14.515625 C 14.222656 14.019531 13.9375 13.714844 13.574219 13.335938 C 13.320312 13.019531 13.320312 13.019531 13.320312 12.601562 C 13.503906 12.496094 13.503906 12.496094 13.691406 12.390625 C 13.617188 11.011719 13.457031 9.664062 13.238281 8.308594 C 13.214844 8.164062 13.195312 8.019531 13.171875 7.871094 C 13.042969 7.117188 12.886719 6.578125 12.578125 5.878906 C 10.472656 5.777344 10.472656 5.777344 8.324219 5.671875 C 8.324219 6.5 8.324219 7.332031 8.324219 8.191406 C 8.203125 8.191406 8.082031 8.191406 7.953125 8.191406 C 8.015625 8.328125 8.078125 8.46875 8.140625 8.609375 C 8.324219 8.472656 8.507812 8.332031 8.695312 8.191406 C 8.640625 8.308594 8.589844 8.425781 8.53125 8.542969 C 8.316406 9.046875 8.132812 9.558594 7.953125 10.078125 C 7.832031 10.078125 7.710938 10.078125 7.585938 10.078125 C 7.605469 9.742188 7.628906 9.40625 7.65625 9.070312 C 7.671875 8.789062 7.671875 8.789062 7.695312 8.5 C 7.800781 7.480469 7.976562 6.472656 8.140625 5.460938 Z M 8.140625 5.460938 "/>
<path style=" stroke:none;fill-rule:nonzero;fill:rgb(40.000001%,78.823531%,85.882354%);fill-opacity:1;" d="M 7.585938 34.019531 C 7.707031 34.019531 7.828125 34.019531 7.953125 34.019531 C 7.929688 34.4375 7.902344 34.851562 7.875 35.265625 C 7.859375 35.5 7.84375 35.730469 7.828125 35.96875 C 7.769531 36.539062 7.769531 36.539062 7.585938 36.75 C 7.269531 36.769531 6.953125 36.773438 6.636719 36.769531 C 6.347656 36.769531 6.347656 36.769531 6.054688 36.769531 C 5.855469 36.765625 5.652344 36.765625 5.445312 36.761719 C 5.144531 36.761719 5.144531 36.761719 4.832031 36.761719 C 4.332031 36.757812 3.832031 36.753906 3.328125 36.75 C 3.390625 36.195312 3.453125 35.640625 3.515625 35.070312 C 3.636719 35.070312 3.757812 35.070312 3.886719 35.070312 C 3.824219 35.484375 3.761719 35.902344 3.699219 36.328125 C 4.980469 36.328125 6.265625 36.328125 7.585938 36.328125 C 7.585938 35.566406 7.585938 34.804688 7.585938 34.019531 Z M 7.585938 34.019531 "/>
<path style=" stroke:none;fill-rule:nonzero;fill:rgb(39.607844%,78.039217%,83.92157%);fill-opacity:1;" d="M 29.414062 33.601562 C 29.535156 33.601562 29.660156 33.601562 29.785156 33.601562 C 29.835938 33.765625 29.886719 33.929688 29.941406 34.097656 C 30.007812 34.308594 30.074219 34.523438 30.144531 34.742188 C 30.210938 34.953125 30.277344 35.164062 30.34375 35.382812 C 30.480469 35.890625 30.480469 35.890625 30.710938 36.121094 C 31.207031 36.167969 31.703125 36.207031 32.203125 36.238281 C 32.410156 36.25 32.410156 36.25 32.625 36.265625 C 32.972656 36.289062 33.320312 36.308594 33.671875 36.328125 C 33.671875 36.398438 33.671875 36.46875 33.671875 36.539062 C 32.570312 36.539062 31.472656 36.539062 30.339844 36.539062 C 29.519531 34.53125 29.519531 34.53125 29.414062 33.601562 Z M 29.414062 33.601562 "/>
<path style=" stroke:none;fill-rule:nonzero;fill:rgb(39.607844%,80.392158%,86.274511%);fill-opacity:1;" d="M 12.394531 24.570312 C 12.765625 24.78125 12.765625 24.78125 12.878906 25.132812 C 12.964844 25.71875 12.949219 26.285156 12.949219 26.878906 C 13.011719 27.089844 13.070312 27.296875 13.136719 27.511719 C 11.730469 27.511719 10.328125 27.511719 8.878906 27.511719 C 8.878906 27.441406 8.878906 27.371094 8.878906 27.300781 C 10.710938 27.195312 10.710938 27.195312 12.578125 27.089844 C 12.519531 26.257812 12.457031 25.425781 12.394531 24.570312 Z M 12.394531 24.570312 "/>
<path style=" stroke:none;fill-rule:nonzero;fill:rgb(35.686275%,82.352942%,89.803922%);fill-opacity:1;" d="M 13.875 11.550781 C 13.996094 11.550781 14.121094 11.550781 14.246094 11.550781 C 14.308594 11.914062 14.367188 12.277344 14.429688 12.640625 C 14.464844 12.839844 14.5 13.042969 14.535156 13.253906 C 14.609375 13.816406 14.628906 14.339844 14.613281 14.910156 C 14.5625 14.78125 14.507812 14.648438 14.453125 14.515625 C 14.222656 14.019531 13.9375 13.714844 13.574219 13.335938 C 13.320312 13.019531 13.320312 13.019531 13.320312 12.601562 C 13.441406 12.53125 13.5625 12.460938 13.691406 12.390625 C 13.8125 11.964844 13.8125 11.964844 13.875 11.550781 Z M 13.875 11.550781 "/>
<path style=" stroke:none;fill-rule:nonzero;fill:rgb(36.862746%,83.137256%,89.411765%);fill-opacity:1;" d="M 23.679688 16.589844 C 24.050781 16.589844 24.050781 16.589844 24.429688 16.878906 C 24.960938 17.691406 24.980469 18.535156 24.976562 19.53125 C 24.914062 19.738281 24.851562 19.945312 24.789062 20.160156 C 24.421875 18.980469 24.058594 17.804688 23.679688 16.589844 Z M 23.679688 16.589844 "/>
<path style=" stroke:none;fill-rule:nonzero;fill:rgb(36.862746%,81.176472%,88.627452%);fill-opacity:1;" d="M 8.140625 6.511719 C 8.199219 6.511719 8.261719 6.511719 8.324219 6.511719 C 8.324219 7.0625 8.324219 7.617188 8.324219 8.191406 C 8.203125 8.191406 8.082031 8.191406 7.953125 8.191406 C 8.015625 8.328125 8.078125 8.46875 8.140625 8.609375 C 8.324219 8.472656 8.507812 8.332031 8.695312 8.191406 C 8.640625 8.308594 8.589844 8.425781 8.53125 8.542969 C 8.316406 9.046875 8.132812 9.558594 7.953125 10.078125 C 7.832031 10.078125 7.710938 10.078125 7.585938 10.078125 C 7.730469 7.660156 7.730469 7.660156 8.140625 6.511719 Z M 8.140625 6.511719 "/>
<path style=" stroke:none;fill-rule:nonzero;fill:rgb(41.960785%,80.784315%,87.843138%);fill-opacity:1;" d="M 4.808594 26.671875 C 4.871094 26.671875 4.933594 26.671875 4.996094 26.671875 C 5.035156 28.085938 5.070312 29.523438 4.625 30.871094 C 4.503906 30.9375 4.378906 31.007812 4.253906 31.078125 C 4.351562 29.582031 4.519531 28.136719 4.808594 26.671875 Z M 4.808594 26.671875 "/>
<path style=" stroke:none;fill-rule:nonzero;fill:rgb(41.568628%,81.568629%,89.019608%);fill-opacity:1;" d="M 14.984375 17.011719 C 15.046875 17.011719 15.105469 17.011719 15.171875 17.011719 C 15.261719 17.511719 15.355469 18.015625 15.449219 18.519531 C 15.472656 18.660156 15.5 18.800781 15.527344 18.949219 C 15.664062 19.714844 15.757812 20.429688 15.726562 21.210938 C 15.601562 21.210938 15.480469 21.210938 15.355469 21.210938 C 14.949219 19.832031 14.960938 18.445312 14.984375 17.011719 Z M 14.984375 17.011719 "/>
<path style=" stroke:none;fill-rule:nonzero;fill:rgb(39.607844%,80.392158%,88.235295%);fill-opacity:1;" d="M 27.566406 17.640625 C 27.917969 18.242188 28.113281 18.761719 28.328125 19.4375 C 28.394531 19.640625 28.457031 19.847656 28.527344 20.054688 C 28.675781 20.578125 28.675781 20.578125 28.675781 21 C 28.554688 21 28.429688 21 28.304688 21 C 28.183594 20.648438 28.058594 20.300781 27.933594 19.949219 C 27.867188 19.78125 27.796875 19.613281 27.726562 19.4375 C 27.539062 18.8125 27.539062 18.296875 27.566406 17.640625 Z M 27.566406 17.640625 "/>
<path style=" stroke:none;fill-rule:nonzero;fill:rgb(38.82353%,81.568629%,86.666667%);fill-opacity:1;" d="M 27.75 28.769531 C 28.457031 29.265625 28.457031 29.265625 28.601562 29.875 C 28.609375 30.042969 28.621094 30.210938 28.628906 30.382812 C 28.640625 30.554688 28.648438 30.722656 28.660156 30.898438 C 28.664062 31.027344 28.671875 31.15625 28.675781 31.289062 C 28.242188 30.796875 28.167969 30.460938 28.003906 29.792969 C 27.957031 29.601562 27.90625 29.410156 27.859375 29.214844 C 27.824219 29.066406 27.785156 28.921875 27.75 28.769531 Z M 27.75 28.769531 "/>
<path style=" stroke:none;fill-rule:nonzero;fill:rgb(40.392157%,81.568629%,87.058824%);fill-opacity:1;" d="M 8.140625 31.078125 C 8.199219 31.078125 8.261719 31.078125 8.324219 31.078125 C 8.265625 31.980469 8.203125 32.882812 8.140625 33.808594 C 8.078125 33.808594 8.019531 33.808594 7.953125 33.808594 C 7.691406 32.039062 7.691406 32.039062 8.140625 31.078125 Z M 8.140625 31.078125 "/>
<path style=" stroke:none;fill-rule:nonzero;fill:rgb(40.784314%,80.392158%,85.882354%);fill-opacity:1;" d="M 29.230469 22.890625 C 29.777344 23.511719 29.800781 24.140625 29.96875 24.988281 C 29.398438 24.457031 29.246094 23.894531 29.046875 23.101562 C 29.105469 23.03125 29.167969 22.960938 29.230469 22.890625 Z M 29.230469 22.890625 "/>
</g>
</svg>
